<?xml version="1.0" encoding="utf-8"?>
<!-- Generator: Adobe Illustrator 24.0.2, SVG Export Plug-In . SVG Version: 6.00 Build 0)  -->
<svg version="1.1" id="Layer_1" xmlns="http://www.w3.org/2000/svg" xmlns:xlink="http://www.w3.org/1999/xlink" x="0px" y="0px"
	 viewBox="0 0 133.4 59.2" style="enable-background:new 0 0 133.4 59.2;" xml:space="preserve">
<style type="text/css">
	.st0{fill:#4E4D51;}
	.st1{fill:#66BC8D;}
</style>
<g>
	<path class="st0" d="M20.5,52l0,3.1c0,0.3,0,0.5,0,0.7c0,0.1,0,0.2,0,0.2c1.5,0,2.4,0,2.9-0.1c0.5-0.1,0.8-0.1,0.9,0
		c0.1,0,0.2,0.1,0.2,0.1c0.1,0.1,0.2,0.2,0.2,0.3c0,0.1-0.1,0.2-0.2,0.3c-0.1,0.1-0.3,0.1-0.5,0.1c-1-0.1-1.8-0.1-2.6,0
		c-0.8,0-1.2,0.1-1.3,0.1c-0.1,0-0.2,0-0.2,0c-0.1,0-0.1,0-0.2-0.1c-0.1-0.1-0.2-0.2-0.2-0.4c0.1-1.7,0.1-3.6,0.1-5.6
		c0-2,0-3.3,0-3.9s0-1,0-1.4c0-0.9,0-1.6-0.1-2c0-0.4,0-0.6,0-0.7c0-0.1,0.1-0.1,0.2-0.2c0.1,0,0.2-0.1,0.3,0c0.2,0,0.6,0.1,1,0.1
		c0.8,0,1.3,0,1.6-0.1c0.3,0,0.5,0,0.6,0c0.1,0,0.2,0.1,0.2,0.1c0.1,0.1,0.2,0.2,0.2,0.3s-0.1,0.2-0.2,0.3c-0.1,0.1-0.2,0.1-0.4,0.1
		c-0.2,0-0.4,0-0.6,0c-0.2,0-0.4,0-0.7,0c-0.5,0-0.9,0-1.3,0c0,0.5,0,1,0,1.5c0,0.6,0,1.2,0,1.8c0,1.6,0,2.9,0,3.6
		c0.7,0,1.3,0,1.6-0.1c0.4,0,0.6,0,0.7,0.1c0.1,0.1,0.1,0.2,0.1,0.3c0,0.3-0.3,0.5-0.9,0.5c-0.1,0-0.2,0-0.3,0l-0.7,0h-0.5L20.5,52
		L20.5,52z"/>
	<path class="st0" d="M30.1,52.2c0,0.4-0.1,0.6-0.4,0.6c-0.3,0-0.4-0.2-0.4-0.6c0-1-0.3-1.5-1.1-1.5c-0.5,0-0.8,0.3-1.1,0.9
		c-0.3,0.5-0.4,1.1-0.4,1.7c0,0.6,0,1.1,0.1,1.5c0.1,0.3,0.2,0.6,0.4,0.9c0.3,0.4,0.6,0.6,1.1,0.6c0.3,0,0.5-0.1,0.7-0.3
		c0.2-0.2,0.3-0.4,0.4-0.7c0.1-0.4,0.3-0.5,0.5-0.5c0.1,0,0.2,0.1,0.3,0.1c0.1,0.1,0.1,0.2,0.1,0.4s-0.1,0.4-0.2,0.6
		c-0.1,0.2-0.3,0.4-0.4,0.6c-0.4,0.3-0.8,0.5-1.4,0.5c-0.6,0-1.1-0.3-1.5-0.8c-0.4-0.6-0.7-1.5-0.7-2.6c0-1.1,0.2-2,0.7-2.7
		c0.4-0.6,1-0.9,1.6-0.9c0.6,0,1,0.2,1.4,0.6C29.9,50.9,30.1,51.5,30.1,52.2z"/>
	<path class="st0" d="M34,57c-0.3,0-0.6-0.1-0.9-0.2c-0.3-0.1-0.5-0.4-0.7-0.7c-0.5-0.6-0.7-1.6-0.7-2.7c0-1.1,0.2-1.9,0.7-2.5
		c0.5-0.6,1.1-0.9,1.9-0.9c0.7,0,1.2,0.3,1.6,0.8c0.4,0.6,0.7,1.4,0.7,2.5c0,1.2-0.3,2.1-0.8,2.8C35.3,56.6,34.7,57,34,57z
		 M34.8,50.9c-0.2-0.1-0.4-0.2-0.7-0.2c-0.3,0-0.5,0.1-0.7,0.2s-0.4,0.3-0.5,0.6c-0.3,0.5-0.4,1.2-0.4,2.1c0,0.9,0.1,1.6,0.4,2
		c0.3,0.4,0.7,0.6,1.1,0.6c0.5,0,0.9-0.3,1.3-0.9c0.3-0.5,0.4-1.2,0.4-2C35.7,52.1,35.4,51.3,34.8,50.9z"/>
	<path class="st0" d="M42.7,52.5l0,1.9c0,0.6,0,1.2,0.1,1.8c0,0.2,0,0.3-0.1,0.4c-0.1,0.1-0.2,0.1-0.3,0.1s-0.2,0-0.3-0.1
		c-0.1-0.1-0.1-0.2-0.1-0.4c0-0.2,0-0.4,0.1-0.6c0-0.2,0-0.5,0-0.7c0-0.5,0-0.9,0-1.3c0-0.3,0-0.6,0-0.7c0-0.2,0-0.4,0-0.7
		c0-0.3-0.1-0.6-0.2-0.8c-0.1-0.3-0.3-0.4-0.6-0.4c-0.3,0-0.5,0.1-0.7,0.2c-0.2,0.1-0.4,0.3-0.5,0.4c-0.3,0.4-0.6,0.8-0.7,1.4
		c0,0.2,0,0.3,0,0.5v0.5c0,1.1,0,1.8,0,2.1c0,0.3,0,0.6-0.1,0.7c-0.1,0.1-0.2,0.2-0.3,0.2c-0.2,0-0.3-0.1-0.4-0.2
		c-0.1-0.1-0.1-0.3-0.1-0.6c0.1-0.8,0.1-1.5,0.1-2.3c0-1.4,0-2.4-0.1-3c0-0.4,0.1-0.6,0.5-0.6c0.2,0,0.3,0.1,0.3,0.2
		c0.1,0.1,0.1,0.2,0.1,0.3c0,0.1,0,0.2,0,0.3s0,0.2,0,0.3c0,0.1,0,0.2,0,0.3c0.3-0.7,0.8-1.1,1.4-1.3c0.2-0.1,0.4-0.1,0.6-0.1
		s0.4,0,0.6,0.1c0.2,0.1,0.4,0.2,0.5,0.4C42.5,51.1,42.7,51.7,42.7,52.5z"/>
	<path class="st0" d="M46.8,57c-0.3,0-0.6-0.1-0.9-0.2c-0.3-0.1-0.5-0.4-0.7-0.7c-0.5-0.6-0.7-1.6-0.7-2.7c0-1.1,0.2-1.9,0.7-2.5
		c0.5-0.6,1.1-0.9,1.9-0.9c0.7,0,1.2,0.3,1.6,0.8c0.4,0.6,0.7,1.4,0.7,2.5c0,1.2-0.3,2.1-0.8,2.8C48.1,56.6,47.5,57,46.8,57z
		 M47.6,50.9c-0.2-0.1-0.4-0.2-0.7-0.2s-0.5,0.1-0.7,0.2c-0.2,0.1-0.4,0.3-0.5,0.6c-0.3,0.5-0.4,1.2-0.4,2.1c0,0.9,0.1,1.6,0.4,2
		c0.3,0.4,0.7,0.6,1.1,0.6c0.5,0,0.9-0.3,1.3-0.9c0.3-0.5,0.4-1.2,0.4-2C48.5,52.1,48.2,51.3,47.6,50.9z"/>
	<path class="st0" d="M52,53.4V54c0,0.3,0,1,0.1,2.2c0,0.3-0.1,0.4-0.3,0.5c-0.1,0-0.1,0-0.2,0c-0.1,0-0.2,0-0.2-0.1
		c-0.1-0.1-0.1-0.3-0.1-0.5c0-0.3,0-0.6,0-0.8c0-0.3,0-0.6,0-0.8c0-0.6,0-1.1,0-1.5c0-0.6,0-1.3-0.1-2.1c0-0.2,0-0.3,0.1-0.4
		s0.2-0.2,0.3-0.2c0.1,0,0.2,0.1,0.4,0.2c0.1,0.1,0.2,0.2,0.2,0.3c0,0.1,0,0.2,0,0.3c0,0.1,0,0.2,0,0.3c0,0,0,0.1,0,0.1
		c0.3-0.6,0.7-1,1.2-1.2c0.2-0.1,0.3-0.1,0.5-0.1c0.2,0,0.4,0,0.5,0.1c0.2,0.1,0.3,0.2,0.4,0.4c0.2,0.2,0.3,0.5,0.4,0.8
		c0.5-0.9,1.1-1.3,1.8-1.3s1.2,0.4,1.4,1.3c0.1,0.3,0.1,0.7,0.1,1.1v1.1c0,1,0,1.9,0.1,2.5c0,0.2,0,0.3-0.1,0.4s-0.2,0.2-0.3,0.2
		c-0.1,0-0.2,0-0.2,0c-0.1,0-0.1-0.1-0.2-0.1c-0.1-0.1-0.2-0.2-0.2-0.4c0-0.2,0-0.4,0-0.6s0-0.4,0-0.7c0-0.6,0-1,0-1.3
		c0-0.3,0-0.5,0-0.7c0-0.2,0-0.4,0-0.7c0-0.3-0.1-0.6-0.2-0.9c-0.2-0.3-0.3-0.4-0.6-0.4s-0.4,0.1-0.6,0.2c-0.2,0.1-0.3,0.2-0.4,0.4
		c-0.3,0.4-0.4,0.8-0.5,1.4v0.6c0,1,0,1.9,0.1,2.6c0,0.2-0.1,0.3-0.2,0.4c-0.1,0.1-0.2,0.2-0.3,0.2c-0.1,0-0.2,0-0.3-0.1
		c-0.1-0.1-0.1-0.2-0.1-0.4c0-0.2,0-0.4,0-0.6c0-0.2,0-0.5,0-0.7c0-0.6,0-1,0-1.3v-0.7c0-0.2,0-0.3,0-0.5c0-0.5-0.1-0.8-0.3-1.1
		S53.9,51,53.7,51s-0.4,0.1-0.6,0.2c-0.2,0.1-0.3,0.3-0.5,0.5C52.3,52,52.1,52.5,52,53C52,53.2,52,53.3,52,53.4z"/>
	<path class="st0" d="M60.7,48.5c0.5-0.6,0.9-1,1.1-1.3c0.4-0.5,0.7-0.7,0.9-0.5c0.2,0.2,0.3,0.4,0,0.7c-0.2,0.2-0.3,0.4-0.5,0.6
		c-0.4,0.4-0.7,0.7-0.8,0.8c-0.1,0.2-0.2,0.3-0.3,0.3c-0.1,0.1-0.2,0.1-0.3,0.1c-0.1,0-0.2,0-0.2-0.1c-0.1-0.1-0.1-0.1-0.1-0.2
		C60.5,48.9,60.5,48.7,60.7,48.5z M61.7,50.8c-0.1,1.7-0.1,2.8-0.1,3.2c0,0.4,0,0.9,0,1.5s0,0.9,0,1c0,0.1-0.1,0.1-0.1,0.2
		c-0.1,0.1-0.2,0.2-0.3,0.2c-0.1,0-0.2,0-0.3-0.1c-0.1-0.1-0.1-0.3-0.1-0.5c0.1-0.7,0.1-1.5,0.1-2.2c0-0.7,0-1.4,0-1.8s0-0.8,0-1.1
		s0-0.4,0-0.5c0-0.1,0.1-0.1,0.1-0.2c0.1-0.1,0.2-0.1,0.3-0.1c0.1,0,0.2,0,0.3,0.1C61.7,50.5,61.7,50.6,61.7,50.8z"/>
	<path class="st0" d="M67.7,57c-0.3,0-0.5-0.3-0.5-0.8c0,0,0-0.1,0-0.3c-0.1,0.1-0.1,0.1-0.2,0.2c-0.5,0.6-1.1,0.9-1.7,0.9
		c-0.5,0-0.9-0.2-1.2-0.5c-0.3-0.3-0.5-0.7-0.5-1.3c0-0.7,0.3-1.3,0.8-1.7c0.2-0.2,0.5-0.3,0.8-0.4c0.3-0.1,0.7-0.2,1-0.2
		c0.3,0,0.6,0.1,0.9,0.2v-0.9c0-0.5-0.1-0.9-0.3-1.2c-0.2-0.3-0.4-0.4-0.7-0.4c-0.2,0-0.4,0-0.6,0.1c-0.1,0.1-0.3,0.1-0.4,0.3
		c-0.2,0.2-0.4,0.5-0.4,0.9c0,0.2,0,0.3-0.1,0.4c-0.1,0.1-0.2,0.1-0.3,0.1c-0.3,0-0.5-0.2-0.5-0.6c0-0.4,0.2-0.8,0.7-1.2
		c0.4-0.4,0.9-0.6,1.5-0.6c0.8,0,1.4,0.4,1.7,1.2c0.1,0.3,0.2,0.6,0.2,1V53l0,1.5v0.8c0,0.3,0,0.6,0.1,0.8s0.1,0.4,0.1,0.5
		c0,0.1,0,0.2-0.1,0.2C67.9,56.9,67.8,57,67.7,57z M67.2,55c0-0.3,0-0.7,0-1.2c-0.3-0.1-0.6-0.1-1-0.1c-0.5,0-0.9,0.1-1.3,0.4
		c-0.2,0.1-0.3,0.3-0.4,0.5c-0.1,0.2-0.2,0.4-0.2,0.7s0.1,0.5,0.3,0.7c0.2,0.2,0.5,0.3,0.9,0.3c0.4,0,0.8-0.3,1.3-0.8
		C67,55.3,67.1,55.2,67.2,55z"/>
	<path class="st0" d="M78.4,53.2c0-0.2,0.1-0.3,0.1-0.4c0.1-0.1,0.2-0.2,0.3-0.2s0.2,0,0.3,0.1s0.1,0.2,0.1,0.4
		c-0.1,1.2-0.4,2.1-1,2.8c-0.6,0.7-1.3,1-2.1,1c-1.6,0-2.6-1.2-3.1-3.5c-0.2-0.9-0.3-1.9-0.3-3.1c0-1.2,0.1-2.2,0.2-3.2
		c0.1-0.9,0.4-1.7,0.7-2.4c0.6-1.5,1.5-2.2,2.7-2.2c0.9,0,1.6,0.4,2,1.1c0.5,0.8,0.7,2,0.7,3.8c0,0.2,0,0.3-0.1,0.4
		C79.1,48,78.9,48,78.8,48c-0.3,0-0.4-0.2-0.4-0.5c0-2.2-0.3-3.4-1-3.9c-0.2-0.1-0.5-0.2-0.9-0.2c-0.3,0-0.6,0.1-0.9,0.3
		c-0.3,0.2-0.5,0.4-0.7,0.8s-0.4,0.7-0.5,1.1c-0.2,0.4-0.3,0.9-0.4,1.4c-0.2,1-0.3,2-0.3,3c0,1,0,1.8,0.1,2.4
		c0.1,0.6,0.2,1.1,0.3,1.6c0.1,0.4,0.3,0.8,0.4,1.1s0.3,0.5,0.5,0.6c0.3,0.3,0.7,0.4,1.3,0.4c0.6,0,1-0.2,1.4-0.7
		C78.2,54.9,78.4,54.2,78.4,53.2z"/>
	<path class="st0" d="M82.7,47.5c0,0.1,0.1,0.2,0.1,0.3c0,0.1,0,0.2-0.1,0.3s-0.1,0.2-0.2,0.2c-0.1,0.1-0.3,0.2-0.4,0.2
		s-0.3,0-0.3-0.1c-0.1,0-0.2-0.1-0.2-0.1c-0.2-0.1-0.2-0.3-0.2-0.6c0-0.2,0.1-0.4,0.2-0.5c0.2-0.2,0.4-0.3,0.6-0.3
		C82.4,47.1,82.6,47.2,82.7,47.5z M82.3,52.6c0,0.6,0,1.1,0,1.6s0,1,0,1.5c0,0.5,0,0.8,0,0.9c0,0.1-0.1,0.1-0.1,0.2
		c-0.1,0.1-0.2,0.2-0.3,0.2c-0.1,0-0.2,0-0.3-0.1c-0.1-0.1-0.1-0.3-0.1-0.5c0.1-0.7,0.1-1.5,0.1-2.3s0-1.4,0-1.8c0-0.5,0-0.8,0-1.1
		c0-0.2,0-0.4,0-0.5c0-0.1,0.1-0.1,0.1-0.2c0.1-0.1,0.2-0.1,0.3-0.1c0.1,0,0.2,0,0.3,0.1c0.1,0.1,0.1,0.2,0.1,0.4
		C82.4,51.4,82.4,52,82.3,52.6z"/>
	<path class="st0" d="M88.4,50.5c0,0.3-0.2,0.5-0.5,0.5c-0.4,0.1-0.8,0.4-1.3,1c-0.5,0.6-0.8,1.3-0.9,1.9c0,0.3,0,0.5,0,0.7
		c0,0.5,0,1.1,0.1,1.7c0,0.2,0,0.3-0.1,0.4c-0.1,0.1-0.2,0.2-0.3,0.2c-0.1,0-0.2,0-0.3-0.1c-0.1-0.1-0.1-0.2-0.1-0.4
		c0-0.2,0-0.4,0-0.6c0-0.2,0-0.5,0-0.8c0-0.5,0-1,0-1.5c0-0.9,0-1.7,0-2.1c0-0.5,0-0.7,0-0.8c0-0.1,0.1-0.1,0.1-0.2
		c0.1-0.1,0.2-0.1,0.3-0.1c0.1,0,0.2,0,0.3,0.1c0.1,0.1,0.1,0.2,0.1,0.3c0,0.1,0,0.3,0,0.4c0,0.1,0,0.3-0.1,0.5c0,0.3-0.1,0.6-0.1,1
		c0.2-0.6,0.6-1.2,1-1.7c0.5-0.6,0.9-0.8,1.3-0.8c0.2,0,0.3,0,0.3,0.1C88.3,50.2,88.4,50.3,88.4,50.5z"/>
	<path class="st0" d="M93.4,52.2c0,0.4-0.1,0.6-0.4,0.6c-0.3,0-0.4-0.2-0.4-0.6c0-1-0.3-1.5-1.1-1.5c-0.5,0-0.8,0.3-1.1,0.9
		c-0.3,0.5-0.4,1.1-0.4,1.7c0,0.6,0,1.1,0.1,1.5c0.1,0.3,0.2,0.6,0.4,0.9c0.3,0.4,0.6,0.6,1.1,0.6c0.3,0,0.5-0.1,0.7-0.3
		c0.2-0.2,0.3-0.4,0.4-0.7c0.1-0.4,0.3-0.5,0.5-0.5c0.1,0,0.2,0.1,0.3,0.1c0.1,0.1,0.1,0.2,0.1,0.4s-0.1,0.4-0.2,0.6
		c-0.1,0.2-0.3,0.4-0.4,0.6c-0.4,0.3-0.8,0.5-1.4,0.5c-0.6,0-1.1-0.3-1.5-0.8c-0.4-0.6-0.7-1.5-0.7-2.6c0-1.1,0.2-2,0.7-2.7
		c0.4-0.6,1-0.9,1.6-0.9c0.6,0,1,0.2,1.4,0.6C93.3,50.9,93.4,51.5,93.4,52.2z"/>
	<path class="st0" d="M96.1,54.6c0,1,0.4,1.6,1.2,1.6c0.4,0,0.8-0.2,1.1-0.7c0.3-0.4,0.4-0.9,0.5-1.4c0-0.5,0-1,0-1.4
		c0-0.6,0-1.2,0-1.9c0-0.2,0-0.3,0.2-0.4c0.1-0.1,0.2-0.2,0.3-0.2c0.1,0,0.2,0,0.3,0.1c0.1,0.1,0.1,0.2,0.1,0.4
		c-0.1,1.1-0.2,2.2-0.2,3.3s0,1.6,0,1.8c0,0.1,0.1,0.2,0.1,0.3c0.1,0.2,0.1,0.4,0.1,0.5c0,0.1,0,0.2-0.1,0.3
		c-0.1,0.1-0.2,0.1-0.3,0.1c-0.4,0-0.7-0.4-0.6-1.2c-0.2,0.4-0.4,0.6-0.6,0.8c-0.6,0.5-1.2,0.6-1.9,0.3c-0.8-0.3-1.2-1.1-1.2-2.3
		c0-0.6,0-1.3,0-1.9c0-0.6,0-1.2,0-1.8c0-0.2,0.1-0.3,0.2-0.4c0.1-0.1,0.2-0.1,0.3-0.1s0.2,0,0.3,0.1c0.1,0.1,0.1,0.2,0.1,0.4
		s0,0.5-0.1,0.8c0,0.3,0,0.7,0,1C96.2,53.3,96.1,53.9,96.1,54.6z"/>
	<path class="st0" d="M103.1,45.3c0,0.7,0,1.5,0,2.3c0,0.8,0,2.1,0,3.8c0,1.7,0,3.3,0.1,4.8c0,0.2,0,0.3-0.1,0.4
		c-0.1,0.1-0.2,0.2-0.3,0.2c-0.1,0-0.3,0-0.4-0.1c-0.1-0.1-0.2-0.3-0.1-0.6c0-0.3,0-0.8,0.1-1.4c0-0.6,0-1.3,0.1-2.1
		c0-1.7,0-3.1,0-4.2s0-2,0-2.5s0-1.1,0-1.6c0-0.9,0-1.7-0.1-2.4c0-0.2,0-0.3,0.1-0.4s0.2-0.2,0.3-0.2c0.1,0,0.3,0.1,0.4,0.2
		c0.1,0.1,0.2,0.3,0.2,0.6s0,0.7,0,1.3C103.1,44,103.1,44.6,103.1,45.3z"/>
	<path class="st0" d="M109.2,57c-0.3,0-0.5-0.3-0.5-0.8c0,0,0-0.1,0-0.3c-0.1,0.1-0.1,0.1-0.2,0.2c-0.5,0.6-1.1,0.9-1.7,0.9
		c-0.5,0-0.9-0.2-1.2-0.5c-0.3-0.3-0.5-0.7-0.5-1.3c0-0.7,0.3-1.3,0.8-1.7c0.2-0.2,0.5-0.3,0.8-0.4c0.3-0.1,0.7-0.2,1-0.2
		c0.3,0,0.6,0.1,0.9,0.2v-0.9c0-0.5-0.1-0.9-0.3-1.2c-0.2-0.3-0.4-0.4-0.7-0.4c-0.2,0-0.4,0-0.6,0.1c-0.1,0.1-0.3,0.1-0.4,0.3
		c-0.2,0.2-0.4,0.5-0.4,0.9c0,0.2,0,0.3-0.1,0.4c-0.1,0.1-0.2,0.1-0.3,0.1c-0.3,0-0.5-0.2-0.5-0.6c0-0.4,0.2-0.8,0.7-1.2
		c0.4-0.4,0.9-0.6,1.5-0.6c0.8,0,1.4,0.4,1.7,1.2c0.1,0.3,0.2,0.6,0.2,1V53l0,1.5v0.8c0,0.3,0,0.6,0.1,0.8c0.1,0.2,0.1,0.4,0.1,0.5
		c0,0.1,0,0.2-0.1,0.2C109.5,56.9,109.4,57,109.2,57z M108.7,55c0-0.3,0-0.7,0-1.2c-0.3-0.1-0.6-0.1-1-0.1c-0.5,0-0.9,0.1-1.3,0.4
		c-0.2,0.1-0.3,0.3-0.4,0.5c-0.1,0.2-0.2,0.4-0.2,0.7s0.1,0.5,0.3,0.7c0.2,0.2,0.5,0.3,0.9,0.3s0.8-0.3,1.3-0.8
		C108.5,55.3,108.6,55.2,108.7,55z"/>
	<path class="st0" d="M115.2,50.5c0,0.3-0.2,0.5-0.5,0.5c-0.4,0.1-0.8,0.4-1.3,1c-0.5,0.6-0.8,1.3-0.9,1.9c0,0.3,0,0.5,0,0.7
		c0,0.5,0,1.1,0.1,1.7c0,0.2,0,0.3-0.1,0.4c-0.1,0.1-0.2,0.2-0.3,0.2c-0.1,0-0.2,0-0.3-0.1c-0.1-0.1-0.1-0.2-0.1-0.4
		c0-0.2,0-0.4,0-0.6c0-0.2,0-0.5,0-0.8c0-0.5,0-1,0-1.5c0-0.9,0-1.7,0-2.1c0-0.5,0-0.7,0-0.8c0-0.1,0.1-0.1,0.1-0.2
		c0.1-0.1,0.2-0.1,0.3-0.1s0.2,0,0.3,0.1c0.1,0.1,0.1,0.2,0.1,0.3s0,0.3,0,0.4c0,0.1,0,0.3-0.1,0.5c0,0.3-0.1,0.6-0.1,1
		c0.2-0.6,0.6-1.2,1-1.7c0.5-0.6,0.9-0.8,1.3-0.8c0.2,0,0.3,0,0.3,0.1C115.2,50.2,115.2,50.3,115.2,50.5z"/>
</g>
<g>
	<path class="st0" d="M51.5,25.8l6,10.1h-3.8l-5.1-9.1c-1.2,0.2-2.5,0.4-4,0.4h-3.4v8.7H38V3.4h6.3c9.8,0,13.3,5.7,13.3,11.9
		C57.7,19.6,55.9,23.7,51.5,25.8z M44.7,24c6.4,0,9.9-3.4,9.9-8.7c0-5.6-3.6-8.8-9.9-8.8h-3.5V24C41.2,24,44.7,24,44.7,24z"/>
	<path class="st0" d="M75,25.8l6,10.1h-3.8l-5.1-9.1c-1.2,0.2-2.5,0.4-4,0.4h-3.4v8.7h-3.2V3.4h6.3c9.8,0,13.3,5.7,13.3,11.9
		C81.2,19.6,79.3,23.7,75,25.8z M68.2,24c6.4,0,9.9-3.4,9.9-8.7c0-5.6-3.6-8.8-9.9-8.8h-3.5V24C64.7,24,68.2,24,68.2,24z"/>
	<path class="st0" d="M100.4,2.7c-9.6,0-16.9,7.8-16.9,16.9c0,2.6,0.6,5,1.6,7.2c0.5,1,1,1.9,1.7,2.8c3,4.1,7.9,6.8,13.5,6.8
		c5.6,0,10.5-2.7,13.5-6.8c0.7-0.9,1.2-1.8,1.7-2.8H112c-0.6,1-1.4,2-2.3,2.8c-2.4,2.3-5.7,3.7-9.3,3.7c-3.7,0-7-1.4-9.5-3.7
		c-0.9-0.8-1.7-1.8-2.3-2.8c-1.2-2-1.9-4.2-2-6.6h30.5C117.8,10.8,110,2.7,100.4,2.7z M86.9,17.3c0.9-6.3,6.4-11.5,13.5-11.5
		c6.9,0,12.7,5.2,13.4,11.5H86.9z"/>
	<path class="st0" d="M115.9,33c3.8,0,6.3-2.2,6.3-6.6V12.8c0-6.1,3.9-9.7,9.5-9.7v3.2c-3.9,0-6.3,2.2-6.3,6.5v13.5
		c0,6.1-3.9,9.7-9.5,9.7V33z"/>
	<path class="st1" d="M31.9,18.6c0,0-0.1-0.1-0.1-0.1c0,0,0,0.1,0,0.1c-1.7,0.4-3.4,0.2-4.9-0.4c0,0-0.1,0-0.1-0.1
		c-0.1,0-0.1-0.1-0.2-0.1l0,0c-0.5-0.2-1-0.4-1.6-0.6c-0.4-0.1-0.8-0.3-1.2-0.4c-1.6-0.4-3.3-0.7-5-0.6c-2,0-4,0.4-5.8,1
		c-0.7,0.2-1.3,0.5-1.9,0.8c0.9-0.3,1.8-0.6,2.8-0.8c1.1-0.2,2.3-0.4,3.4-0.4c1.3,0,2.6,0.1,3.9,0.4c1.8,0.4,3.5,1,5.1,1.9
		c0,0,0,0,0,0c0.1,0,0.1,0.1,0.2,0.1c0.9,0.5,1.8,0.8,2.9,0.9c0.1,0,0.2,0,0.3,0c0.2,0,0.4,0,0.6,0c0.1,0,0.1,0,0.2,0
		c0.5,0,0.9-0.1,1.3-0.2c0.3-0.1,0.5-0.1,0.8-0.2c-0.2,0.1-0.3,0.3-0.5,0.4c-0.1,0.1-0.2,0.2-0.3,0.3c-0.2,0.2-0.4,0.3-0.6,0.5
		c-0.4,0.3-0.9,0.6-1.3,0.9C25,24.7,18.9,25,13.7,22c-0.2-0.1-0.3-0.2-0.5-0.3l0,0c-1.6-0.9-3.4-1.3-5.3-0.9
		c-0.5,0.1-0.9,0.2-1.3,0.4c-0.1,0.1-0.3,0.1-0.4,0.2c0.3-0.4,0.7-0.8,1-1.2c0.1-0.1,0.1-0.1,0.2-0.2c0.6-0.6,1.2-1.2,1.9-1.7
		c0.5-0.4,0.9-0.7,1.4-1c2.8-1.8,6-2.8,9.6-2.9c0.9,0,1.7,0,2.6,0.1c0.2,0,0.3,0.1,0.5,0.1c1.8,0.3,3.6,0.9,5.2,1.7l0,0
		c0.1,0.1,0.3,0.1,0.4,0.2l0,0c0.9,0.4,1.8,0.7,2.7,0.7c0.2,0,0.3,0,0.5,0c1.1,0,2.2-0.2,3.2-0.7c-0.6,0.6-1.3,1.1-2.1,1.5
		C32.7,18.3,32.3,18.5,31.9,18.6z"/>
	<path class="st1" d="M6.3,13.4c-0.9,1.9-1.4,4-1.4,6.2c0,0.2,0,0.4,0,0.6h0c0,0.6,0.1,1.1,0.2,1.7c0,0.1,0,0.1,0,0.2
		c0,0.2,0.1,0.4,0.1,0.6c0,0,0,0,0,0.1c0.7,3.3,2.7,6.2,5.4,8.1c1.4,1,2.9,1.7,4.6,2.1c0.5,0.1,0.9,0.2,1.4,0.3
		c0.6,0.1,1.3,0.1,2,0.1c3.7,0,7-1.5,9.5-3.8c0.9-0.8,1.6-1.8,2.2-2.8H34c-0.1,0.2-0.1,0.3-0.2,0.4c-0.4,0.8-0.9,1.6-1.5,2.4
		c-3,4.1-8,6.9-13.7,6.9c-2.3,0-4.4-0.4-6.4-1.2c-4-1.6-7.1-4.7-8.9-8.5c-0.1-0.2-0.2-0.5-0.3-0.7c-0.1-0.3-0.3-0.7-0.4-1
		c0-0.1,0-0.1-0.1-0.2c-0.5-1.7-0.8-3.4-0.8-5.2c0-3.9,1.4-7.6,3.7-10.5c3.1-3.9,7.8-6.4,13.2-6.4c2.8,0,5.4,0.7,7.8,1.9
		c0.1,0,0.1,0.1,0.2,0.1C27,5,27.5,5.2,27.9,5.5c3.8,2.5,6.6,6.5,7.4,11.1c0,0,0,0,0,0c-1,0.4-2.1,0.7-3.2,0.7
		c-0.5-4.2-3.3-8-7.1-10c0,0-0.1,0-0.1-0.1c-0.3-0.2-0.7-0.3-1-0.5c-1.6-0.7-3.4-1.1-5.3-1.1c-4.3,0-8,1.9-10.5,4.9
		c0,0,0,0.1-0.1,0.1C7.4,11.6,6.8,12.5,6.3,13.4z"/>
</g>
</svg>
