<svg width="71" height="71" viewBox="0 0 71 71" fill="none" xmlns="http://www.w3.org/2000/svg">
<g id="&#60;svg&#62;">
<path id="Vector" d="M36.3407 53.2753C26.1685 53.2753 17.5094 45.0029 17.5094 34.7993C17.5094 24.5958 25.7279 16.0043 35.9001 16.0043C44.9899 16.0043 52.5124 22.2684 54.0112 31.4162C47.2417 30.9714 48.7205 27.5454 37.5301 27.6255C25.6637 28.3593 19.533 36.9336 19.533 36.9336C25.832 34.2257 30.6692 38.3998 31.6803 38.7946C32.6928 39.1894 36.2352 41.3609 43.1531 40.4582C50.071 39.5556 54.6829 34.9867 54.6829 34.9867C45.4034 35.9179 47.7565 33.6792 41.2607 31.987C33.6683 30.2948 30.163 31.5736 26.2826 32.5892C37.9807 27.1735 45.7414 32.3074 48.6663 33.2101C51.5912 34.1127 54.2052 32.9211 54.2052 32.9211C55.356 32.4519 57.0844 31.6566 58.2895 30.6881C56.3614 20.1613 47.1732 12.1821 36.1197 12.1821C23.6672 12.1821 13.572 22.3084 13.572 34.7993C13.572 47.2902 23.6672 57.4165 36.1197 57.4165C45.2009 57.4165 53.023 52.0279 56.5953 44.2676H51.8122C48.7362 49.6619 43.0618 53.2753 36.3407 53.2753Z" fill="#67BB8D"/>
<path id="Vector_2" d="M35.9314 66.6184C53.4499 66.6184 67.6516 52.373 67.6516 34.8004C67.6516 17.2278 53.4499 2.98242 35.9314 2.98242C18.4128 2.98242 4.21118 17.2278 4.21118 34.8004C4.21118 52.373 18.4128 66.6184 35.9314 66.6184Z" stroke="#67BB8D" stroke-miterlimit="10"/>
</g>
</svg>
