<?xml version="1.0" encoding="utf-8"?>
<!-- Generator: Adobe Illustrator 24.0.2, SVG Export Plug-In . SVG Version: 6.00 Build 0)  -->
<svg version="1.1" id="Capa_1" xmlns="http://www.w3.org/2000/svg" xmlns:xlink="http://www.w3.org/1999/xlink" x="0px" y="0px"
	 viewBox="0 0 595.28 210.38" style="enable-background:new 0 0 595.28 210.38;" xml:space="preserve">
<style type="text/css">
	.st0{fill:#67BB8D;}
	.st1{fill:#4E4D51;}
</style>
<path class="st0" d="M152.81,152.88c-23.09,0-42.74-18.72-42.74-41.81s18.65-42.53,41.74-42.53c20.63,0,37.71,14.18,41.11,34.88
	c-15.36-1.01-12.01-8.76-37.41-8.58c-26.94,1.66-40.85,21.06-40.85,21.06c14.3-6.13,25.28,3.32,27.57,4.21
	c2.3,0.89,10.34,5.81,26.04,3.77c15.7-2.04,26.17-12.38,26.17-12.38c-21.06,2.11-15.72-2.96-30.47-6.79
	c-17.23-3.83-25.19-0.94-34,1.36c26.55-12.26,44.17-0.64,50.81,1.4s12.57-0.65,12.57-0.65c2.61-1.06,6.54-2.86,9.27-5.05
	c-4.38-23.82-25.23-41.88-50.32-41.88c-28.27,0-51.18,22.91-51.18,51.18c0,28.27,22.91,51.18,51.18,51.18
	c20.61,0,38.37-12.19,46.48-29.76h-10.86C180.95,144.71,168.07,152.88,152.81,152.88z"/>
<path class="st1" d="M252.15,128.8c9.32-4.34,18.26-15.57,18.26-29.49c0-13.91-2.13-20.81-11.15-29.23
	c-10.36-9.68-38.72-8.77-38.72-8.77H211v97.87h9.53v-26.59c3.6,0.22,13.98,0.65,22.67-0.91l0,0l15.33,27.5h11.87l-18.44-30.28
	C252.03,128.86,252.09,128.83,252.15,128.8z M220.54,123.69l0.17-52.77h14.04c0,0,26.64,0.08,26.64,26.12
	c0,26.05-25.02,26.64-25.02,26.64H220.54z"/>
<path class="st1" d="M323.39,128.8c9.32-4.34,18.26-15.57,18.26-29.49c0-13.91-2.13-20.81-11.15-29.23
	c-10.36-9.68-38.72-8.77-38.72-8.77h-9.53v97.87h9.53v-26.59c3.6,0.22,13.98,0.65,22.67-0.91l0,0l15.33,27.5h11.87L323.2,128.9
	C323.26,128.86,323.33,128.83,323.39,128.8z M291.77,123.69l0.17-52.77h14.04c0,0,26.64,0.08,26.64,26.12
	c0,26.05-25.02,26.64-25.02,26.64H291.77z"/>
<path class="st1" d="M451.3,112.37c0.02-0.59,0.05-1.19,0.05-1.79c0-28.15-22.91-50.98-51.16-50.98
	c-28.26,0-51.16,22.82-51.16,50.98s22.91,50.98,51.16,50.98c20.23,0,37.72-11.7,46.02-28.68h-11.14
	c-7.35,11.81-20.33,19.66-35.13,19.66c-22.36,0-40.59-17.91-41.47-40.34h82.94c0,0.06,0,0.11,0,0.17H451.3z M399.92,68.46
	c20.46,0,37.45,15,40.87,34.72h-81.75C362.47,83.45,379.46,68.46,399.92,68.46z"/>
<path class="st1" d="M446.92,150.5v9.53c0,0,22.81,1.53,27.57-21.28s-3.57-52.09,5.11-62.13c5.79-7.06,14.98-6.3,14.98-6.3v-9
	c0,0-18.77-1.15-25.53,14.45c-6.64,13.45,1.81,59.4-6.19,68.09S446.92,150.5,446.92,150.5z"/>
</svg>
