<svg width="22" height="21" viewBox="0 0 22 21" fill="none" xmlns="http://www.w3.org/2000/svg">
<path d="M21.7936 4.48418C21.7548 4.44089 21.7062 4.40605 21.6514 4.38213C21.5965 4.3582 21.5366 4.34578 21.476 4.34573H4.44656L3.8798 1.44701C3.82773 1.18118 3.67694 0.940779 3.45373 0.767715C3.23052 0.594651 2.94904 0.499906 2.65839 0.5H0.791618C0.681901 0.5 0.576678 0.540518 0.499096 0.612639C0.421515 0.68476 0.37793 0.782578 0.37793 0.884573C0.37793 0.986568 0.421515 1.08439 0.499096 1.15651C0.576678 1.22863 0.681901 1.26915 0.791618 1.26915H2.65322C2.75117 1.26766 2.84652 1.29854 2.92228 1.35629C2.99803 1.41404 3.04928 1.49491 3.06691 1.5845L5.70417 15.0734C5.79645 15.5424 6.07289 15.9628 6.47984 16.2531C6.05311 16.5088 5.72098 16.8799 5.52824 17.3165C5.33549 17.7532 5.29141 18.2342 5.40192 18.6949C5.51244 19.1555 5.77224 19.5735 6.1463 19.8926C6.52035 20.2117 6.99066 20.4165 7.49382 20.4794C7.99698 20.5423 8.50878 20.4602 8.96021 20.2443C9.41163 20.0284 9.78098 19.6889 10.0184 19.2718C10.2559 18.8546 10.35 18.3798 10.2882 17.9114C10.2263 17.443 10.0114 17.0034 9.67248 16.6521H15.9047C15.5258 17.0459 15.3037 17.5487 15.2757 18.0765C15.2476 18.6042 15.4153 19.125 15.7506 19.5516C16.0859 19.9783 16.5686 20.285 17.118 20.4206C17.6674 20.5561 18.2502 20.5123 18.769 20.2964C19.2878 20.0805 19.7111 19.7056 19.9683 19.2344C20.2255 18.7631 20.3009 18.2241 20.1819 17.7074C20.063 17.1907 19.7568 16.7276 19.3147 16.3956C18.8726 16.0635 18.3213 15.8825 17.7529 15.8829H7.73848C7.44801 15.8828 7.16678 15.7879 6.94378 15.6149C6.72079 15.4418 6.57015 15.2016 6.5181 14.9359L6.10441 12.8063H18.5906C19.075 12.8064 19.5441 12.6484 19.916 12.3599C20.288 12.0714 20.5392 11.6707 20.6259 11.2277L21.8835 4.79953C21.8943 4.74404 21.8918 4.68704 21.8763 4.63254C21.8608 4.57804 21.8325 4.52739 21.7936 4.48418ZM9.47908 18.1904C9.47908 18.4946 9.38203 18.792 9.2002 19.045C9.01838 19.298 8.75994 19.4951 8.45757 19.6115C8.1552 19.728 7.82249 19.7584 7.5015 19.6991C7.18051 19.6397 6.88566 19.4932 6.65424 19.2781C6.42282 19.063 6.26521 18.7889 6.20137 18.4905C6.13752 18.1921 6.17029 17.8828 6.29553 17.6017C6.42078 17.3206 6.63287 17.0803 6.90499 16.9113C7.17712 16.7423 7.49705 16.6521 7.82432 16.6521C8.26319 16.6521 8.68409 16.8141 8.99441 17.1026C9.30474 17.3911 9.47908 17.7824 9.47908 18.1904ZM19.4076 18.1904C19.4076 18.4946 19.3106 18.792 19.1287 19.045C18.9469 19.298 18.6885 19.4951 18.3861 19.6115C18.0837 19.728 17.751 19.7584 17.43 19.6991C17.109 19.6397 16.8142 19.4932 16.5828 19.2781C16.3513 19.063 16.1937 18.7889 16.1299 18.4905C16.066 18.1921 16.0988 17.8828 16.2241 17.6017C16.3493 17.3206 16.5614 17.0803 16.8335 16.9113C17.1056 16.7423 17.4256 16.6521 17.7529 16.6521C18.1917 16.6521 18.6126 16.8141 18.9229 17.1026C19.2333 17.3911 19.4076 17.7824 19.4076 18.1904ZM19.812 11.0902C19.7599 11.356 19.6091 11.5964 19.3859 11.7695C19.1627 11.9425 18.8812 12.0373 18.5906 12.0372H5.95031L4.59652 5.11487H20.9807L19.812 11.0902Z" fill="#67BB8D"/>
</svg>
