<?xml version="1.0" encoding="utf-8"?>
<!-- Generator: Adobe Illustrator 24.0.2, SVG Export Plug-In . SVG Version: 6.00 Build 0)  -->
<svg version="1.1" id="Capa_1" xmlns="http://www.w3.org/2000/svg" xmlns:xlink="http://www.w3.org/1999/xlink" x="0px" y="0px"
	 viewBox="0 0 27 19" style="enable-background:new 0 0 27 19;" xml:space="preserve">
<style type="text/css">
	.st0{fill:#67BC8C;}
</style>
<path class="st0" d="M18.5,9.5l6.9-6v12L18.5,9.5z M9.6,10.5l2.4,2.1c0.4,0.3,0.9,0.5,1.4,0.5h0h0c0.5,0,1-0.2,1.4-0.5l0,0l2.4-2.1
	l7.4,6.3H2.2L9.6,10.5z M2.2,2h22.5l-10.8,9.4c-0.1,0.1-0.3,0.1-0.4,0.1h0h0c-0.2,0-0.3-0.1-0.4-0.1l0,0L2.2,2z M1.5,3.5l6.9,6
	l-6.9,5.9V3.5z M25.8,0.7c-0.3-0.1-0.6-0.2-0.9-0.2H2.1c-0.3,0-0.6,0.1-0.9,0.2l0,0C0.8,0.9,0.5,1.2,0.3,1.5S0,2.2,0,2.6v13.7
	c0,0.6,0.2,1.1,0.6,1.5c0.4,0.4,0.9,0.6,1.5,0.6h22.8c0.6,0,1.1-0.2,1.5-0.6c0.4-0.4,0.6-0.9,0.6-1.5V2.6C27,1.8,26.5,1.1,25.8,0.7
	L25.8,0.7L25.8,0.7z"/>
</svg>
