<svg width="27" height="19" viewBox="0 0 27 19" fill="none" xmlns="http://www.w3.org/2000/svg">
<path d="M18.5445 9.473L25.4644 3.461V15.4164L18.5445 9.473ZM9.62775 10.4911L12.0578 12.6005C12.4391 12.9245 12.9364 13.1203 13.4798 13.1203H13.4989H13.5135C14.058 13.1203 14.5553 12.9234 14.9411 12.5971L14.9377 12.5994L17.3678 10.49L24.7545 16.8339H2.24437L9.62775 10.4911ZM2.23425 2.03562H24.768L13.9444 11.4361C13.8227 11.5324 13.672 11.5847 13.5169 11.5846H13.5011H13.4865C13.3308 11.5848 13.1796 11.5321 13.0579 11.435L13.059 11.4361L2.23425 2.03562ZM1.53562 3.45988L8.45438 9.47188L1.53562 15.4119V3.45988ZM25.8356 0.71375C25.5656 0.57875 25.2484 0.5 24.912 0.5H2.09137C1.76531 0.500078 1.44372 0.575949 1.152 0.721625L1.16437 0.716C0.815145 0.88825 0.521041 1.15473 0.315286 1.48533C0.109531 1.81593 0.000323267 2.19748 0 2.58687L0 16.2804C0.000595579 16.8346 0.221009 17.3659 0.612878 17.7577C1.00475 18.1496 1.53606 18.37 2.09025 18.3706H24.9086C25.4628 18.37 25.9941 18.1496 26.386 17.7577C26.7779 17.3659 26.9983 16.8346 26.9989 16.2804V2.58687C26.9989 1.769 26.5275 1.06025 25.8412 0.719375L25.8289 0.71375H25.8356Z" fill="#67BC8C"/>
</svg>
