<svg width="25" height="26" viewBox="0 0 25 26" fill="none" xmlns="http://www.w3.org/2000/svg">
<g clip-path="url(#clip0_868_266)">
<path d="M0.834748 22.3539H24.14C24.9412 22.3539 25.5966 21.6581 25.5966 20.8077C25.5966 19.9573 24.9412 19.2616 24.14 19.2616H0.834748C0.0336278 19.2616 -0.621834 19.9573 -0.621834 20.8077C-0.621834 21.6581 0.0336278 22.3539 0.834748 22.3539ZM0.834748 14.6231H24.14C24.9412 14.6231 25.5966 13.9273 25.5966 13.0769C25.5966 12.2266 24.9412 11.5308 24.14 11.5308H0.834748C0.0336278 11.5308 -0.621834 12.2266 -0.621834 13.0769C-0.621834 13.9273 0.0336278 14.6231 0.834748 14.6231ZM-0.621834 5.34617C-0.621834 6.19656 0.0336278 6.89233 0.834748 6.89233H24.14C24.9412 6.89233 25.5966 6.19656 25.5966 5.34617C25.5966 4.49579 24.9412 3.80002 24.14 3.80002H0.834748C0.0336278 3.80002 -0.621834 4.49579 -0.621834 5.34617Z" fill="#67BC8C"/>
</g>
<defs>
<clipPath id="clip0_868_266">
<rect width="24.2017" height="24.7385" fill="white" transform="translate(0.386566 0.707703)"/>
</clipPath>
</defs>
</svg>
