<svg width="29" height="29" viewBox="0 0 29 29" fill="none" xmlns="http://www.w3.org/2000/svg">
<path d="M18.4475 14.0553C18.4475 15.2202 17.9848 16.3374 17.1611 17.1611C16.3374 17.9848 15.2202 18.4475 14.0553 18.4475C12.8904 18.4475 11.7732 17.9848 10.9495 17.1611C10.1258 16.3374 9.663 15.2202 9.663 14.0553C9.663 13.8049 9.68935 13.5604 9.73474 13.3232H8.19891V19.1752C8.19891 19.5822 8.52833 19.9116 8.93534 19.9116H19.1767C19.3717 19.9112 19.5587 19.8335 19.6964 19.6954C19.8342 19.5573 19.9116 19.3703 19.9116 19.1752V13.3232H18.3758C18.4212 13.5604 18.4475 13.8049 18.4475 14.0553ZM14.0553 16.9834C14.4399 16.9834 14.8207 16.9075 15.1761 16.7602C15.5314 16.6129 15.8542 16.3971 16.1261 16.1251C16.398 15.853 16.6137 15.5301 16.7608 15.1747C16.9079 14.8193 16.9835 14.4384 16.9834 14.0538C16.9834 13.6692 16.9075 13.2883 16.7602 12.933C16.6129 12.5777 16.3971 12.2549 16.1251 11.983C15.853 11.7111 15.5301 11.4954 15.1747 11.3483C14.8193 11.2012 14.4384 11.1255 14.0538 11.1256C13.277 11.1258 12.5321 11.4346 11.983 11.984C11.4338 12.5334 11.1254 13.2785 11.1256 14.0553C11.1258 14.8321 11.4346 15.577 11.984 16.1261C12.5334 16.6752 13.2785 16.9836 14.0553 16.9834ZM17.5691 10.9807H19.3245C19.4412 10.9807 19.553 10.9344 19.6356 10.8521C19.7182 10.7698 19.7648 10.6581 19.7652 10.5415V8.78601C19.7652 8.66913 19.7188 8.55704 19.6361 8.47439C19.5535 8.39174 19.4414 8.34531 19.3245 8.34531H17.5691C17.4522 8.34531 17.3401 8.39174 17.2575 8.47439C17.1748 8.55704 17.1284 8.66913 17.1284 8.78601V10.5415C17.1299 10.783 17.3275 10.9807 17.5691 10.9807ZM14.0553 0C10.3276 0 6.75257 1.48082 4.11669 4.11669C1.48082 6.75257 0 10.3276 0 14.0553C0 17.783 1.48082 21.358 4.11669 23.9938C6.75257 26.6297 10.3276 28.1105 14.0553 28.1105C15.901 28.1105 17.7287 27.747 19.434 27.0406C21.1393 26.3343 22.6887 25.299 23.9938 23.9938C25.299 22.6887 26.3343 21.1393 27.0406 19.434C27.747 17.7287 28.1105 15.901 28.1105 14.0553C28.1105 12.2095 27.747 10.3818 27.0406 8.67655C26.3343 6.97129 25.299 5.42184 23.9938 4.11669C22.6887 2.81154 21.1393 1.77624 19.434 1.06989C17.7287 0.36355 15.901 0 14.0553 0ZM21.3757 19.7491C21.3757 20.6437 20.6437 21.3757 19.7491 21.3757H8.36142C7.46686 21.3757 6.73482 20.6437 6.73482 19.7491V8.36142C6.73482 7.46686 7.46686 6.73482 8.36142 6.73482H19.7491C20.6437 6.73482 21.3757 7.46686 21.3757 8.36142V19.7491Z" fill="#383838"/>
</svg>
