<svg width="29" height="29" viewBox="0 0 29 29" fill="none" xmlns="http://www.w3.org/2000/svg">
<path d="M14.0553 0C6.29266 0 0 6.29266 0 14.0553C0 21.8179 6.29266 28.1105 14.0553 28.1105C21.8179 28.1105 28.1105 21.8179 28.1105 14.0553C28.1105 6.29266 21.8179 0 14.0553 0ZM19.7725 11.5136C19.7784 11.6337 19.7799 11.7537 19.7799 11.8708C19.7799 15.5311 16.9966 19.7491 11.9045 19.7491C10.3999 19.7516 8.92651 19.3195 7.66158 18.5046C7.87681 18.531 8.09788 18.5412 8.32189 18.5412C9.61907 18.5412 10.8123 18.1005 11.7596 17.3568C11.1823 17.3455 10.623 17.1543 10.1595 16.81C9.69601 16.4657 9.35151 15.9853 9.17399 15.4359C9.58856 15.5147 10.0156 15.4982 10.4229 15.3876C9.7963 15.2609 9.23284 14.9214 8.82804 14.4267C8.42323 13.9319 8.20199 13.3124 8.20183 12.6732V12.6395C8.57518 12.8459 9.00269 12.9718 9.45656 12.9865C8.86916 12.5955 8.45334 11.9948 8.29414 11.3074C8.13493 10.6199 8.24437 9.89762 8.60007 9.28819C9.29544 10.1432 10.1626 10.8427 11.1455 11.3413C12.1283 11.8399 13.205 12.1266 14.3056 12.1827C14.1657 11.5887 14.2259 10.9652 14.4769 10.409C14.728 9.85275 15.1557 9.39505 15.6937 9.10703C16.2317 8.819 16.8497 8.71679 17.4518 8.81627C18.0539 8.91575 18.6062 9.21136 19.0229 9.65714C19.6425 9.53456 20.2366 9.3073 20.7798 8.98512C20.5733 9.62659 20.141 10.1713 19.5632 10.518C20.112 10.4519 20.6479 10.3044 21.1532 10.0803C20.782 10.6365 20.3145 11.1219 19.7725 11.5136Z" fill="#383838"/>
</svg>
