<svg width="18" height="24" viewBox="0 0 18 24" fill="none" xmlns="http://www.w3.org/2000/svg">
<path d="M9.08587 0C4.16625 0 0 4.18988 0 9.15338C0 14.3509 4.82888 19.6661 8.07712 23.4019C8.0895 23.4169 8.61452 24 9.26137 24H9.31877C9.96565 24 10.4869 23.4169 10.5 23.4019C13.5484 19.8975 18 14.1195 18 9.15338C18 4.18988 14.7502 0 9.08587 0ZM9.38662 22.3958C9.36037 22.422 9.3221 22.4513 9.28835 22.4756C9.25385 22.452 9.21635 22.422 9.18862 22.3958L8.79635 21.9446C5.71688 18.4118 1.5 13.5739 1.5 9.15338C1.5 5.00475 4.974 1.49962 9.08587 1.49962C14.2076 1.49962 16.5 5.34338 16.5 9.15338C16.5 12.5093 14.1064 16.965 9.38662 22.3958ZM9.02623 4.54163C6.5411 4.54163 4.52623 6.5565 4.52623 9.04163C4.52623 11.5267 6.5411 13.5416 9.02623 13.5416C11.5114 13.5416 13.5262 11.5267 13.5262 9.04163C13.5262 6.5565 11.5114 4.54163 9.02623 4.54163ZM9.02623 12.0416C7.3721 12.0416 5.9917 10.6631 5.9917 9.00863C5.9917 7.3545 7.33758 6.00863 8.9917 6.00863C10.647 6.00863 11.9917 7.3545 11.9917 9.00863C11.9925 10.6631 10.6815 12.0416 9.02623 12.0416Z" fill="#67BC8C"/>
</svg>
