<?xml version="1.0" encoding="utf-8"?>
<!-- Generator: Adobe Illustrator 24.0.2, SVG Export Plug-In . SVG Version: 6.00 Build 0)  -->
<svg version="1.1" id="Capa_1" xmlns="http://www.w3.org/2000/svg" xmlns:xlink="http://www.w3.org/1999/xlink" x="0px" y="0px"
	 viewBox="0 0 18 24" style="enable-background:new 0 0 18 24;" xml:space="preserve">
<style type="text/css">
	.st0{fill:#67BC8C;}
</style>
<path class="st0" d="M9.1,2.5c-3.9,0-7.3,3.3-7.3,7.3c0,4.1,3.9,8.4,6.4,11.4c0,0,0.4,0.5,0.9,0.5h0c0.5,0,0.9-0.5,0.9-0.5
	c2.4-2.8,6-7.4,6-11.4C16.2,5.8,13.6,2.5,9.1,2.5z M9.3,20.4C9.3,20.4,9.3,20.4,9.3,20.4c-0.1,0-0.1,0-0.2,0L8.8,20
	C6.4,17.2,3,13.3,3,9.8c0-3.3,2.8-6.1,6.1-6.1c4.1,0,5.9,3.1,5.9,6.1C15,12.5,13.1,16,9.3,20.4z M9,6.1c-2,0-3.6,1.6-3.6,3.6
	c0,2,1.6,3.6,3.6,3.6c2,0,3.6-1.6,3.6-3.6C12.6,7.7,11,6.1,9,6.1z M9,12.1c-1.3,0-2.4-1.1-2.4-2.4c0-1.3,1.1-2.4,2.4-2.4
	c1.3,0,2.4,1.1,2.4,2.4C11.4,11,10.3,12.1,9,12.1z"/>
</svg>
